<svg width="200" height="200" viewBox="0 0 200 200" fill="none" xmlns="http://www.w3.org/2000/svg">
<rect width="200" height="200" fill="url(#paint0_linear_257_11)"/>
<path d="M40.5 122.062C39.4583 122.354 38.7917 122.062 38.5 121.188C38.25 120.312 38.7917 119.625 40.125 119.125C42.5 118.167 44.8333 116.875 47.125 115.25C49.4167 113.583 52.0208 110.917 54.9375 107.25C57.8542 103.542 58.1667 99.875 55.875 96.25C53.625 92.5833 51.25 88.875 48.75 85.125C46.5417 82 44.9583 78.6667 44 75.125C43.0833 71.5833 43.0833 68.25 44 65.125C45.8333 58.75 49.5833 53.625 55.25 49.75C60.9583 45.875 68.1875 43.9375 76.9375 43.9375C96.1875 43.9792 105.729 52.5 105.562 69.5C105.521 77.4583 102.167 83.25 95.5 86.875C88.875 90.4583 81.875 90.3958 74.5 86.6875C73.125 86.0625 72.6042 85.375 72.9375 84.625C73.3125 83.8333 74.0417 83.6458 75.125 84.0625C79.375 85.8125 83.4375 85.5833 87.3125 83.375C91.1875 81.1667 93.3125 76.9167 93.6875 70.625C94.1042 63.25 92.7083 57.5208 89.5 53.4375C86.3333 49.3125 82.0625 47.0625 76.6875 46.6875C71.4375 46.6875 67.1458 48.1458 63.8125 51.0625C60.4792 53.9375 58.8125 57.3125 58.8125 61.1875C58.8125 63.8125 59.3542 66.2917 60.4375 68.625C61.5208 70.9583 62.75 73.2083 64.125 75.375C66.625 79.4167 68.4583 84.0208 69.625 89.1875C70.8333 94.3542 67.1042 100.312 58.4375 107.062C58.0208 107.396 57.8333 107.75 57.875 108.125C57.9583 108.5 58.25 108.75 58.75 108.875C64.6667 110.958 70.1667 114.125 75.25 118.375C80.125 122.458 85.2708 124.458 90.6875 124.375C96.1458 124.292 100.312 122.146 103.188 117.938C103.854 116.979 104.583 116.729 105.375 117.188C106.208 117.604 106.312 118.312 105.688 119.312C103.646 122.229 101.167 125.146 98.25 128.062C95.375 130.979 92 133.125 88.125 134.5C84.2917 135.875 79.9792 136.125 75.1875 135.25C70.3958 134.417 65.1042 131.667 59.3125 127C56.1875 124.5 53.0833 122.708 50 121.625C46.9167 120.542 43.75 120.688 40.5 122.062ZM133.5 56.5625C139.333 55.0208 144.688 55.375 149.562 57.625C152.854 59.2083 155.417 61.3958 157.25 64.1875C159.083 66.9792 159.812 70.1042 159.438 73.5625C159.062 77.0208 157.917 79.5833 156 81.25C154.125 82.9167 152.583 84.2083 151.375 85.125C150.167 86.0417 149.021 87 147.938 88C145.812 90 145.646 91.7917 147.438 93.375C153.062 98.25 156.292 102.354 157.125 105.688C158 109.021 157.417 111.958 155.375 114.5C152.542 118 149.521 121.333 146.312 124.5C143.146 127.625 140 130.792 136.875 134C135.333 135.5 134.396 135.417 134.062 133.75C133.521 131.458 131.062 129.458 126.688 127.75C122.354 126 117.771 124.333 112.938 122.75C112.062 122.417 112 121.792 112.75 120.875C113.875 119.708 115.042 118.542 116.25 117.375C117.458 116.208 118.667 115.062 119.875 113.938C121.75 112.188 122.375 110.646 121.75 109.312C121.167 107.938 120.062 106.396 118.438 104.688C114.354 100.438 112.375 96.4583 112.5 92.75C112.667 89.0417 114.021 85.7708 116.562 82.9375C118.938 80.3125 121.604 77.9167 124.562 75.75C127.562 73.5417 130.396 71.0833 133.062 68.375C133.396 68.0833 133.833 68.1875 134.375 68.6875C139.958 73.6458 144.604 76.1458 148.312 76.1875C152.062 76.2292 154.5 75.125 155.625 72.875C156.75 70.5833 156.646 68.2083 155.312 65.75C153.979 63.25 151.812 61.1875 148.812 59.5625C144.271 57.3125 139.292 57.1042 133.875 58.9375C132.792 59.3542 132.146 59.125 131.938 58.25C131.729 57.375 132.25 56.8125 133.5 56.5625ZM123.5 112.688C123.083 113.396 123.208 113.938 123.875 114.312C126.833 115.688 129.792 117.042 132.75 118.375C135.708 119.708 138.688 121 141.688 122.25C143.771 123.167 145.854 121.979 147.938 118.688C150.521 114.562 147.104 109.146 137.688 102.438C136.229 101.562 134.438 101.979 132.312 103.688L123.5 112.688ZM132.125 99.6875C132.625 100.062 133.083 100.042 133.5 99.625L145.125 88.25C145.5 87.8333 145.604 87.4583 145.438 87.125C145.312 86.75 145 86.5417 144.5 86.5C142.125 86.25 139.5 85.3333 136.625 83.75C132 81.125 128.979 79.3542 127.562 78.4375C126.146 77.5208 124.333 78.3542 122.125 80.9375C119.333 84.2292 119.312 87.375 122.062 90.375C124.854 93.375 128.208 96.4792 132.125 99.6875Z" fill="white"/>
<defs>
<linearGradient id="paint0_linear_257_11" x1="52.5" y1="-2.17371e-06" x2="160" y2="200" gradientUnits="userSpaceOnUse">
<stop stop-color="#5F92C1"/>
<stop offset="1" stop-color="#E6B0BE"/>
</linearGradient>
</defs>
</svg>
