<svg width="226" height="226" viewBox="0 0 226 226" fill="none" xmlns="http://www.w3.org/2000/svg">
<g clip-path="url(#clip0_263_17)">
<path d="M225.68 112.847C225.68 175.171 175.165 225.686 112.836 225.686C50.522 225.687 0 175.171 0 112.847C0 50.525 50.522 0 112.836 0C175.165 0 225.68 50.525 225.68 112.847Z" fill="url(#paint0_linear_263_17)"/>
<path d="M117.718 74.1943C126.861 75.3373 135.019 79.649 141.059 85.9951C139.919 86.9521 138.754 87.8721 137.562 88.75C134.603 90.9166 131.936 93.3125 129.562 95.9375C127.02 98.7708 125.666 102.042 125.499 105.75C125.374 109.458 127.353 113.438 131.437 117.688C133.061 119.396 134.166 120.938 134.749 122.312C135.374 123.646 134.749 125.188 132.874 126.938C131.666 128.062 130.457 129.208 129.249 130.375C128.041 131.542 126.874 132.708 125.749 133.875C124.999 134.792 125.062 135.417 125.937 135.75C130.77 137.333 135.353 139 139.687 140.75C139.765 140.781 139.842 140.814 139.919 140.845C132.909 147.628 123.361 151.805 112.836 151.805C107.241 151.805 101.923 150.623 97.1143 148.499C98.5043 148.291 99.8413 147.96 101.124 147.5C104.999 146.125 108.374 143.979 111.249 141.062C114.166 138.146 116.645 135.229 118.687 132.312C119.312 131.312 119.207 130.604 118.374 130.188C117.582 129.729 116.853 129.979 116.187 130.938C113.312 135.146 109.145 137.292 103.687 137.375C98.27 137.458 93.1239 135.458 88.249 131.375C84.1961 127.987 79.8776 125.289 75.2949 123.277C74.8016 121.498 74.4288 119.668 74.1914 117.796C80.8835 111.97 83.6954 106.769 82.624 102.188C81.8582 98.7961 80.8032 95.6479 79.4629 92.7412C85.1774 83.2753 94.805 76.4385 106.105 74.4707C106.684 77.1721 106.879 80.2234 106.687 83.625C106.312 89.9167 104.187 94.1667 100.312 96.375C96.4366 98.5832 92.374 98.8125 88.124 97.0625C87.0408 96.6459 86.3115 96.8334 85.9365 97.625C85.6033 98.3749 86.1242 99.0626 87.499 99.6875C94.8739 103.396 101.874 103.458 108.499 99.875C115.166 96.25 118.52 90.4583 118.562 82.5C118.591 79.4602 118.309 76.6919 117.718 74.1943ZM145.312 116.688C147.436 114.979 149.228 114.563 150.687 115.438C151.016 115.672 151.337 115.905 151.651 116.137C151.177 121.811 149.486 127.139 146.84 131.861C146.476 131.699 146.112 131.539 145.749 131.375C142.791 130.042 139.832 128.687 136.874 127.312C136.208 126.938 136.082 126.396 136.499 125.688L145.312 116.688ZM135.124 93.9375C137.332 91.3543 139.145 90.521 140.562 91.4375C141.787 92.2302 144.213 93.6594 147.837 95.7295C149.659 99.4483 150.906 103.499 151.462 107.769L146.499 112.625C146.082 113.042 145.624 113.062 145.124 112.688C141.207 109.479 137.853 106.375 135.062 103.375C132.312 100.375 132.333 97.2291 135.124 93.9375Z" fill="white"/>
<path d="M116.866 112.847C116.866 115.074 115.063 116.879 112.836 116.879C110.617 116.879 108.807 115.074 108.807 112.847C108.807 110.619 110.617 108.816 112.836 108.816C115.063 108.816 116.866 110.62 116.866 112.847Z" fill="url(#paint1_linear_263_17)"/>
<path d="M20.0967 66.216C30.9197 44.729 48.9917 27.523 71.1007 17.801" stroke="white" stroke-width="2.5007" stroke-linecap="round" stroke-linejoin="round"/>
<path d="M207.882 154.579C197.43 178.35 178.323 197.456 154.547 207.908" stroke="white" stroke-width="2.5007" stroke-linecap="round" stroke-linejoin="round"/>
<path d="M26.9541 65.298C36.7481 47.633 51.8371 33.313 70.0721 24.469" stroke="white" stroke-width="2.5007" stroke-linecap="round" stroke-linejoin="round"/>
<path d="M201.246 155.543C191.621 175.444 175.464 191.601 155.563 201.239" stroke="white" stroke-width="2.5007" stroke-linecap="round" stroke-linejoin="round"/>
<path d="M31.2783 68.092C40.7933 50.792 55.6533 36.846 73.6273 28.478" stroke="white" stroke-width="2.5007" stroke-linecap="round" stroke-linejoin="round"/>
<path d="M197.293 151.87C188.137 171.654 172.24 187.674 152.548 196.98" stroke="white" stroke-width="2.5007" stroke-linecap="round" stroke-linejoin="round"/>
<path d="M194.591 145.045C187.004 164.302 172.808 180.232 154.794 190.045" stroke="white" stroke-width="2.5007" stroke-linecap="round" stroke-linejoin="round"/>
<path d="M34.8281 72.416C43.1831 56.334 56.3571 43.166 72.4361 34.821" stroke="white" stroke-width="2.5007" stroke-linecap="round" stroke-linejoin="round"/>
<path d="M188.86 145.892C181.194 163.508 167.578 177.946 150.548 186.659" stroke="white" stroke-width="2.5007" stroke-linecap="round" stroke-linejoin="round"/>
<path d="M40.2197 72.8721C48.5227 57.8221 61.3717 45.6311 76.9087 38.1421" stroke="white" stroke-width="2.5007" stroke-linecap="round" stroke-linejoin="round"/>
<path d="M42.8506 79.4719C49.6296 65.2719 60.6096 53.4619 74.1746 45.6379" stroke="white" stroke-width="2.5007" stroke-linecap="round" stroke-linejoin="round"/>
<path d="M176.435 145.879C170.255 157.757 160.844 167.682 149.37 174.5" stroke="white" stroke-width="2.5007" stroke-linecap="round" stroke-linejoin="round"/>
<path d="M50.6914 77.164C57.5164 65.305 67.6364 55.582 79.8074 49.249" stroke="white" stroke-width="2.5007" stroke-linecap="round" stroke-linejoin="round"/>
<path d="M169.121 146.979C162.915 157.183 154.019 165.565 143.417 171.139" stroke="white" stroke-width="2.5007" stroke-linecap="round" stroke-linejoin="round"/>
<path d="M57.3535 77.4459C63.8855 67.2249 73.1715 58.9249 84.1575 53.5979" stroke="white" stroke-width="2.5007" stroke-linecap="round" stroke-linejoin="round"/>
<path d="M165.924 141.229C160.968 150.476 153.661 158.284 144.805 163.852" stroke="white" stroke-width="2.5007" stroke-linecap="round" stroke-linejoin="round"/>
<path d="M62.042 80.556C67.532 71.937 75.145 64.813 84.151 59.925" stroke="white" stroke-width="2.5007" stroke-linecap="round" stroke-linejoin="round"/>
<path d="M162.674 136.573C157.986 146.412 150.464 154.644 141.171 160.219" stroke="white" stroke-width="2.5007" stroke-linecap="round" stroke-linejoin="round"/>
<path d="M64.2891 86.5701C69.3941 77.1631 77.1501 69.4031 86.5541 64.2981" stroke="white" stroke-width="2.5007" stroke-linecap="round" stroke-linejoin="round"/>
<path d="M156.897 135.563C152.56 143.963 145.892 150.964 137.745 155.705" stroke="white" stroke-width="2.5007" stroke-linecap="round" stroke-linejoin="round"/>
<path d="M69.9736 87.9319C75.2026 78.9579 83.1736 71.7749 92.7336 67.5259" stroke="white" stroke-width="2.5007" stroke-linecap="round" stroke-linejoin="round"/>
<path d="M154.065 129.807C149.955 139.764 142.356 147.911 132.782 152.711" stroke="white" stroke-width="2.5007" stroke-linecap="round" stroke-linejoin="round"/>
<path d="M73.2363 92.3761C77.4763 84.1901 84.1773 77.4861 92.3633 73.2461" stroke="white" stroke-width="2.5007" stroke-linecap="round" stroke-linejoin="round"/>
<path d="M185.226 140.644C179.144 156.488 168.007 169.819 153.798 178.674" stroke="white" stroke-width="2.5007" stroke-linecap="round" stroke-linejoin="round"/>
<mask id="path-28-outside-1_263_17" maskUnits="userSpaceOnUse" x="49" y="54" width="126" height="97" fill="black">
<rect fill="white" x="49" y="54" width="126" height="97"/>
<path d="M53.5 135.062C52.4583 135.354 51.7917 135.062 51.5 134.188C51.25 133.312 51.7917 132.625 53.125 132.125C55.5 131.167 57.8333 129.875 60.125 128.25C62.4167 126.583 65.0208 123.917 67.9375 120.25C70.8542 116.542 71.1667 112.875 68.875 109.25C66.625 105.583 64.25 101.875 61.75 98.125C59.5417 95 57.9583 91.6667 57 88.125C56.0833 84.5833 56.0833 81.25 57 78.125C58.8333 71.75 62.5833 66.625 68.25 62.75C73.9583 58.875 81.1875 56.9375 89.9375 56.9375C109.188 56.9792 118.729 65.5 118.562 82.5C118.521 90.4583 115.167 96.25 108.5 99.875C101.875 103.458 94.875 103.396 87.5 99.6875C86.125 99.0625 85.6042 98.375 85.9375 97.625C86.3125 96.8333 87.0417 96.6458 88.125 97.0625C92.375 98.8125 96.4375 98.5833 100.312 96.375C104.188 94.1667 106.312 89.9167 106.688 83.625C107.104 76.25 105.708 70.5208 102.5 66.4375C99.3333 62.3125 95.0625 60.0625 89.6875 59.6875C84.4375 59.6875 80.1458 61.1458 76.8125 64.0625C73.4792 66.9375 71.8125 70.3125 71.8125 74.1875C71.8125 76.8125 72.3542 79.2917 73.4375 81.625C74.5208 83.9583 75.75 86.2083 77.125 88.375C79.625 92.4167 81.4583 97.0208 82.625 102.188C83.8333 107.354 80.1042 113.312 71.4375 120.062C71.0208 120.396 70.8333 120.75 70.875 121.125C70.9583 121.5 71.25 121.75 71.75 121.875C77.6667 123.958 83.1667 127.125 88.25 131.375C93.125 135.458 98.2708 137.458 103.688 137.375C109.146 137.292 113.312 135.146 116.188 130.938C116.854 129.979 117.583 129.729 118.375 130.188C119.208 130.604 119.312 131.312 118.688 132.312C116.646 135.229 114.167 138.146 111.25 141.062C108.375 143.979 105 146.125 101.125 147.5C97.2917 148.875 92.9792 149.125 88.1875 148.25C83.3958 147.417 78.1042 144.667 72.3125 140C69.1875 137.5 66.0833 135.708 63 134.625C59.9167 133.542 56.75 133.688 53.5 135.062ZM146.5 69.5625C152.333 68.0208 157.688 68.375 162.562 70.625C165.854 72.2083 168.417 74.3958 170.25 77.1875C172.083 79.9792 172.812 83.1042 172.438 86.5625C172.062 90.0208 170.917 92.5833 169 94.25C167.125 95.9167 165.583 97.2083 164.375 98.125C163.167 99.0417 162.021 100 160.938 101C158.812 103 158.646 104.792 160.438 106.375C166.062 111.25 169.292 115.354 170.125 118.688C171 122.021 170.417 124.958 168.375 127.5C165.542 131 162.521 134.333 159.312 137.5C156.146 140.625 153 143.792 149.875 147C148.333 148.5 147.396 148.417 147.062 146.75C146.521 144.458 144.062 142.458 139.688 140.75C135.354 139 130.771 137.333 125.938 135.75C125.062 135.417 125 134.792 125.75 133.875C126.875 132.708 128.042 131.542 129.25 130.375C130.458 129.208 131.667 128.062 132.875 126.938C134.75 125.188 135.375 123.646 134.75 122.312C134.167 120.938 133.062 119.396 131.438 117.688C127.354 113.438 125.375 109.458 125.5 105.75C125.667 102.042 127.021 98.7708 129.562 95.9375C131.938 93.3125 134.604 90.9167 137.562 88.75C140.562 86.5417 143.396 84.0833 146.062 81.375C146.396 81.0833 146.833 81.1875 147.375 81.6875C152.958 86.6458 157.604 89.1458 161.312 89.1875C165.062 89.2292 167.5 88.125 168.625 85.875C169.75 83.5833 169.646 81.2083 168.312 78.75C166.979 76.25 164.812 74.1875 161.812 72.5625C157.271 70.3125 152.292 70.1042 146.875 71.9375C145.792 72.3542 145.146 72.125 144.938 71.25C144.729 70.375 145.25 69.8125 146.5 69.5625ZM136.5 125.688C136.083 126.396 136.208 126.938 136.875 127.312C139.833 128.688 142.792 130.042 145.75 131.375C148.708 132.708 151.688 134 154.688 135.25C156.771 136.167 158.854 134.979 160.938 131.688C163.521 127.562 160.104 122.146 150.688 115.438C149.229 114.562 147.438 114.979 145.312 116.688L136.5 125.688ZM145.125 112.688C145.625 113.062 146.083 113.042 146.5 112.625L158.125 101.25C158.5 100.833 158.604 100.458 158.438 100.125C158.312 99.75 158 99.5417 157.5 99.5C155.125 99.25 152.5 98.3333 149.625 96.75C145 94.125 141.979 92.3542 140.562 91.4375C139.146 90.5208 137.333 91.3542 135.125 93.9375C132.333 97.2292 132.312 100.375 135.062 103.375C137.854 106.375 141.208 109.479 145.125 112.688Z"/>
</mask>
<path d="M53.5 135.062C52.4583 135.354 51.7917 135.062 51.5 134.188C51.25 133.312 51.7917 132.625 53.125 132.125C55.5 131.167 57.8333 129.875 60.125 128.25C62.4167 126.583 65.0208 123.917 67.9375 120.25C70.8542 116.542 71.1667 112.875 68.875 109.25C66.625 105.583 64.25 101.875 61.75 98.125C59.5417 95 57.9583 91.6667 57 88.125C56.0833 84.5833 56.0833 81.25 57 78.125C58.8333 71.75 62.5833 66.625 68.25 62.75C73.9583 58.875 81.1875 56.9375 89.9375 56.9375C109.188 56.9792 118.729 65.5 118.562 82.5C118.521 90.4583 115.167 96.25 108.5 99.875C101.875 103.458 94.875 103.396 87.5 99.6875C86.125 99.0625 85.6042 98.375 85.9375 97.625C86.3125 96.8333 87.0417 96.6458 88.125 97.0625C92.375 98.8125 96.4375 98.5833 100.312 96.375C104.188 94.1667 106.312 89.9167 106.688 83.625C107.104 76.25 105.708 70.5208 102.5 66.4375C99.3333 62.3125 95.0625 60.0625 89.6875 59.6875C84.4375 59.6875 80.1458 61.1458 76.8125 64.0625C73.4792 66.9375 71.8125 70.3125 71.8125 74.1875C71.8125 76.8125 72.3542 79.2917 73.4375 81.625C74.5208 83.9583 75.75 86.2083 77.125 88.375C79.625 92.4167 81.4583 97.0208 82.625 102.188C83.8333 107.354 80.1042 113.312 71.4375 120.062C71.0208 120.396 70.8333 120.75 70.875 121.125C70.9583 121.5 71.25 121.75 71.75 121.875C77.6667 123.958 83.1667 127.125 88.25 131.375C93.125 135.458 98.2708 137.458 103.688 137.375C109.146 137.292 113.312 135.146 116.188 130.938C116.854 129.979 117.583 129.729 118.375 130.188C119.208 130.604 119.312 131.312 118.688 132.312C116.646 135.229 114.167 138.146 111.25 141.062C108.375 143.979 105 146.125 101.125 147.5C97.2917 148.875 92.9792 149.125 88.1875 148.25C83.3958 147.417 78.1042 144.667 72.3125 140C69.1875 137.5 66.0833 135.708 63 134.625C59.9167 133.542 56.75 133.688 53.5 135.062ZM146.5 69.5625C152.333 68.0208 157.688 68.375 162.562 70.625C165.854 72.2083 168.417 74.3958 170.25 77.1875C172.083 79.9792 172.812 83.1042 172.438 86.5625C172.062 90.0208 170.917 92.5833 169 94.25C167.125 95.9167 165.583 97.2083 164.375 98.125C163.167 99.0417 162.021 100 160.938 101C158.812 103 158.646 104.792 160.438 106.375C166.062 111.25 169.292 115.354 170.125 118.688C171 122.021 170.417 124.958 168.375 127.5C165.542 131 162.521 134.333 159.312 137.5C156.146 140.625 153 143.792 149.875 147C148.333 148.5 147.396 148.417 147.062 146.75C146.521 144.458 144.062 142.458 139.688 140.75C135.354 139 130.771 137.333 125.938 135.75C125.062 135.417 125 134.792 125.75 133.875C126.875 132.708 128.042 131.542 129.25 130.375C130.458 129.208 131.667 128.062 132.875 126.938C134.75 125.188 135.375 123.646 134.75 122.312C134.167 120.938 133.062 119.396 131.438 117.688C127.354 113.438 125.375 109.458 125.5 105.75C125.667 102.042 127.021 98.7708 129.562 95.9375C131.938 93.3125 134.604 90.9167 137.562 88.75C140.562 86.5417 143.396 84.0833 146.062 81.375C146.396 81.0833 146.833 81.1875 147.375 81.6875C152.958 86.6458 157.604 89.1458 161.312 89.1875C165.062 89.2292 167.5 88.125 168.625 85.875C169.75 83.5833 169.646 81.2083 168.312 78.75C166.979 76.25 164.812 74.1875 161.812 72.5625C157.271 70.3125 152.292 70.1042 146.875 71.9375C145.792 72.3542 145.146 72.125 144.938 71.25C144.729 70.375 145.25 69.8125 146.5 69.5625ZM136.5 125.688C136.083 126.396 136.208 126.938 136.875 127.312C139.833 128.688 142.792 130.042 145.75 131.375C148.708 132.708 151.688 134 154.688 135.25C156.771 136.167 158.854 134.979 160.938 131.688C163.521 127.562 160.104 122.146 150.688 115.438C149.229 114.562 147.438 114.979 145.312 116.688L136.5 125.688ZM145.125 112.688C145.625 113.062 146.083 113.042 146.5 112.625L158.125 101.25C158.5 100.833 158.604 100.458 158.438 100.125C158.312 99.75 158 99.5417 157.5 99.5C155.125 99.25 152.5 98.3333 149.625 96.75C145 94.125 141.979 92.3542 140.562 91.4375C139.146 90.5208 137.333 91.3542 135.125 93.9375C132.333 97.2292 132.312 100.375 135.062 103.375C137.854 106.375 141.208 109.479 145.125 112.688Z" fill="white"/>
<path d="M53.5 135.062L54.0393 136.988L54.1619 136.954L54.2793 136.904L53.5 135.062ZM51.5 134.188L49.577 134.737L49.5889 134.779L49.6026 134.82L51.5 134.188ZM53.125 132.125L53.8272 133.998L53.8504 133.989L53.8734 133.98L53.125 132.125ZM60.125 128.25L61.2819 129.881L61.2916 129.875L61.3013 129.867L60.125 128.25ZM67.9375 120.25L69.5027 121.495L69.5095 121.486L67.9375 120.25ZM68.875 109.25L67.1704 110.296L67.1773 110.307L67.1845 110.319L68.875 109.25ZM61.75 98.125L63.4141 97.0156L63.399 96.993L63.3833 96.9708L61.75 98.125ZM57 88.125L55.0638 88.6261L55.0666 88.6368L55.0694 88.6474L57 88.125ZM57 78.125L58.9192 78.688L58.9221 78.6778L57 78.125ZM68.25 62.75L67.1267 61.0952L67.1211 61.0991L68.25 62.75ZM89.9375 56.9375L89.9418 54.9375H89.9375V56.9375ZM118.562 82.5L116.563 82.4804L116.563 82.4895L118.562 82.5ZM108.5 99.875L109.451 101.634L109.455 101.632L108.5 99.875ZM87.5 99.6875L88.3985 97.9007L88.3634 97.883L88.3276 97.8668L87.5 99.6875ZM85.9375 97.625L84.13 96.7688L84.1197 96.7907L84.1099 96.8127L85.9375 97.625ZM88.125 97.0625L88.8865 95.2131L88.8648 95.2042L88.843 95.1958L88.125 97.0625ZM106.688 83.625L108.684 83.744L108.684 83.7378L106.688 83.625ZM102.5 66.4375L100.914 67.6554L100.92 67.6643L100.927 67.6731L102.5 66.4375ZM89.6875 59.6875L89.8267 57.6923L89.7572 57.6875H89.6875V59.6875ZM76.8125 64.0625L78.1188 65.577L78.1241 65.5723L78.1295 65.5677L76.8125 64.0625ZM73.4375 81.625L75.2515 80.7828L73.4375 81.625ZM77.125 88.375L78.8259 87.3229L78.8198 87.3131L78.8137 87.3034L77.125 88.375ZM82.625 102.188L80.6741 102.628L80.6758 102.635L80.6775 102.643L82.625 102.188ZM71.4375 120.062L70.2086 118.485L70.1983 118.493L70.1881 118.501L71.4375 120.062ZM70.875 121.125L68.8872 121.346L68.8992 121.453L68.9226 121.559L70.875 121.125ZM71.75 121.875L72.4143 119.989L72.3259 119.957L72.2351 119.935L71.75 121.875ZM88.25 131.375L89.5342 129.842L89.5328 129.841L88.25 131.375ZM103.688 137.375L103.657 135.375L103.657 135.375L103.688 137.375ZM116.188 130.938L114.546 129.795L114.541 129.802L114.536 129.809L116.188 130.938ZM118.375 130.188L117.373 131.918L117.426 131.949L117.481 131.976L118.375 130.188ZM118.688 132.312L120.326 133.459L120.356 133.417L120.383 133.372L118.688 132.312ZM111.25 141.062L109.836 139.648L109.831 139.653L109.826 139.658L111.25 141.062ZM101.125 147.5L100.456 145.615L100.45 145.617L101.125 147.5ZM88.1875 148.25L88.5468 146.283L88.5385 146.281L88.5302 146.28L88.1875 148.25ZM72.3125 140L73.5674 138.443L73.5619 138.438L72.3125 140ZM53.5 135.062L52.9607 133.137C52.6759 133.216 52.7679 133.12 53.0204 133.23C53.1535 133.288 53.2619 133.377 53.3345 133.465C53.4002 133.545 53.4096 133.592 53.3974 133.555L51.5 134.188L49.6026 134.82C49.8763 135.641 50.4334 136.464 51.4171 136.895C52.3362 137.297 53.2825 137.2 54.0393 136.988L53.5 135.062ZM51.5 134.188L53.423 133.638C53.4333 133.674 53.4551 133.783 53.427 133.933C53.3983 134.087 53.3338 134.197 53.2897 134.253C53.2531 134.3 53.2516 134.283 53.3435 134.225C53.4347 134.167 53.5883 134.087 53.8272 133.998L53.125 132.125L52.4228 130.252C51.6069 130.558 50.7451 131.02 50.1478 131.778C49.4611 132.649 49.2837 133.711 49.577 134.737L51.5 134.188ZM53.125 132.125L53.8734 133.98C56.4059 132.958 58.8753 131.588 61.2819 129.881L60.125 128.25L58.9681 126.619C56.7913 128.162 54.5941 129.376 52.3766 130.27L53.125 132.125ZM60.125 128.25L61.3013 129.867C63.8026 128.048 66.5367 125.224 69.5027 121.495L67.9375 120.25L66.3723 119.005C63.505 122.61 61.0307 125.118 58.9487 126.633L60.125 128.25ZM67.9375 120.25L69.5095 121.486C71.1417 119.411 72.1546 117.207 72.3522 114.889C72.5514 112.551 71.9044 110.299 70.5655 108.181L68.875 109.25L67.1845 110.319C68.1372 111.826 68.4799 113.22 68.3666 114.549C68.2517 115.897 67.65 117.38 66.3655 119.014L67.9375 120.25ZM68.875 109.25L70.5796 108.204C68.3159 104.515 65.9274 100.785 63.4141 97.0156L61.75 98.125L60.0859 99.2344C62.5726 102.965 64.9341 106.652 67.1704 110.296L68.875 109.25ZM61.75 98.125L63.3833 96.9708C61.3045 94.029 59.825 90.9082 58.9306 87.6026L57 88.125L55.0694 88.6474C56.0916 92.4251 57.7789 95.971 60.1167 99.2792L61.75 98.125ZM57 88.125L58.9362 87.6239C58.0986 84.3877 58.1163 81.425 58.9191 78.6879L57 78.125L55.0809 77.5621C54.0504 81.075 54.0681 84.7789 55.0638 88.6261L57 88.125ZM57 78.125L58.9221 78.6778C60.622 72.7666 64.0818 68.0232 69.3789 64.4009L68.25 62.75L67.1211 61.0991C61.0849 65.2268 57.0446 70.7334 55.0779 77.5722L57 78.125ZM68.25 62.75L69.3733 64.4048C74.6713 60.8083 81.4807 58.9375 89.9375 58.9375V56.9375V54.9375C80.8943 54.9375 73.2453 56.9417 67.1267 61.0952L68.25 62.75ZM89.9375 56.9375L89.9332 58.9375C99.3082 58.9578 105.94 61.0476 110.199 64.8511C114.41 68.6116 116.642 74.3565 116.563 82.4804L118.562 82.5L120.562 82.5196C120.649 73.6435 118.194 66.6279 112.863 61.8676C107.581 57.1503 99.8168 54.9589 89.9418 54.9375L89.9375 56.9375ZM118.562 82.5L116.563 82.4895C116.543 86.1864 115.757 89.2683 114.285 91.8102C112.816 94.3471 110.599 96.457 107.545 98.118L108.5 99.875L109.455 101.632C113.067 99.668 115.861 97.0696 117.746 93.8148C119.628 90.565 120.54 86.772 120.562 82.5105L118.562 82.5ZM108.5 99.875L107.549 98.1158C101.56 101.355 95.255 101.348 88.3985 97.9007L87.5 99.6875L86.6015 101.474C94.495 105.443 102.19 105.562 109.451 101.634L108.5 99.875ZM87.5 99.6875L88.3276 97.8668C88.0612 97.7457 87.8814 97.6417 87.7673 97.5626C87.6496 97.4812 87.6398 97.4525 87.6723 97.4954C87.7121 97.5479 87.8015 97.6918 87.8309 97.9171C87.861 98.1483 87.8109 98.3344 87.7651 98.4373L85.9375 97.625L84.1099 96.8127C83.8975 97.2906 83.7874 97.8439 83.8645 98.4345C83.9407 99.0191 84.1838 99.5146 84.4839 99.9108C85.0439 100.65 85.8786 101.147 86.6724 101.508L87.5 99.6875ZM85.9375 97.625L87.745 98.4812C87.7446 98.482 87.7098 98.5543 87.6121 98.6409C87.5078 98.7335 87.3823 98.7971 87.2637 98.8276C87.1555 98.8554 87.0999 98.8439 87.128 98.8475C87.1585 98.8513 87.2482 98.8681 87.407 98.9292L88.125 97.0625L88.843 95.1958C88.1096 94.9138 87.1996 94.714 86.2675 94.9536C85.2305 95.2203 84.5255 95.9339 84.13 96.7688L85.9375 97.625ZM88.125 97.0625L87.3635 98.9119C92.1631 100.888 96.8735 100.637 101.303 98.1126L100.312 96.375L99.3222 94.6374C96.0015 96.5298 92.5869 96.7368 88.8865 95.2131L88.125 97.0625ZM100.312 96.375L101.303 98.1126C105.988 95.4426 108.287 90.407 108.684 83.744L106.688 83.625L104.691 83.506C104.338 89.4264 102.387 92.8907 99.3222 94.6374L100.312 96.375ZM106.688 83.625L108.684 83.7378C109.117 76.0801 107.687 69.8026 104.073 65.2019L102.5 66.4375L100.927 67.6731C103.729 71.2391 105.091 76.4199 104.691 83.5122L106.688 83.625ZM102.5 66.4375L104.086 65.2196C100.557 60.6219 95.7497 58.1056 89.8267 57.6923L89.6875 59.6875L89.5483 61.6827C94.3753 62.0194 98.1098 64.0031 100.914 67.6554L102.5 66.4375ZM89.6875 59.6875V57.6875C84.0476 57.6875 79.2588 59.2645 75.4955 62.5573L76.8125 64.0625L78.1295 65.5677C81.0329 63.0272 84.8274 61.6875 89.6875 61.6875V59.6875ZM76.8125 64.0625L75.5062 62.548C71.7992 65.7453 69.8125 69.648 69.8125 74.1875H71.8125H73.8125C73.8125 70.977 75.1591 68.1297 78.1188 65.577L76.8125 64.0625ZM71.8125 74.1875H69.8125C69.8125 77.0973 70.4151 79.8645 71.6235 82.4672L73.4375 81.625L75.2515 80.7828C74.2932 78.7188 73.8125 76.5277 73.8125 74.1875H71.8125ZM73.4375 81.625L71.6235 82.4672C72.7435 84.8795 74.0145 87.2061 75.4363 89.4466L77.125 88.375L78.8137 87.3034C77.4855 85.2105 76.2982 83.0372 75.2515 80.7828L73.4375 81.625ZM77.125 88.375L75.4241 89.4271C77.7949 93.2599 79.5507 97.6531 80.6741 102.628L82.625 102.188L84.5759 101.747C83.3659 96.3886 81.4551 91.5734 78.8259 87.3229L77.125 88.375ZM82.625 102.188L80.6775 102.643C81.1248 104.555 80.7161 106.791 79.039 109.47C77.3481 112.172 74.4494 115.182 70.2086 118.485L71.4375 120.062L72.6664 121.64C77.0923 118.193 80.3915 114.849 82.4297 111.592C84.4818 108.313 85.3335 104.986 84.5725 101.732L82.625 102.188ZM71.4375 120.062L70.1881 118.501C69.4788 119.068 68.7409 120.029 68.8872 121.346L70.875 121.125L72.8628 120.904C72.8891 121.141 72.8337 121.359 72.752 121.514C72.6827 121.645 72.6251 121.674 72.6869 121.624L71.4375 120.062ZM70.875 121.125L68.9226 121.559C69.2269 122.928 70.323 123.58 71.2649 123.815L71.75 121.875L72.2351 119.935C72.1881 119.923 72.3015 119.941 72.4578 120.075C72.6406 120.232 72.7752 120.456 72.8274 120.691L70.875 121.125ZM71.75 121.875L71.0857 123.761C76.7643 125.761 82.0569 128.804 86.9672 132.909L88.25 131.375L89.5328 129.841C84.2765 125.446 78.569 122.156 72.4143 119.989L71.75 121.875ZM88.25 131.375L86.9658 132.908C92.1414 137.243 97.7402 139.467 103.718 139.375L103.688 137.375L103.657 135.375C98.8015 135.45 94.1086 133.673 89.5342 129.842L88.25 131.375ZM103.688 137.375L103.718 139.375C109.772 139.282 114.568 136.854 117.839 132.066L116.188 130.938L114.536 129.809C112.057 133.438 108.52 135.301 103.657 135.375L103.688 137.375ZM116.188 130.938L117.829 132.08C117.925 131.943 117.988 131.881 118.008 131.864C118.026 131.848 117.986 131.888 117.883 131.923C117.771 131.961 117.642 131.975 117.522 131.958C117.41 131.943 117.358 131.91 117.373 131.918L118.375 130.188L119.377 128.457C118.583 127.997 117.601 127.791 116.586 128.139C115.66 128.457 115.004 129.137 114.546 129.795L116.188 130.938ZM118.375 130.188L117.481 131.976C117.507 131.99 117.427 131.956 117.327 131.835C117.214 131.7 117.128 131.518 117.099 131.322C117.073 131.143 117.106 131.035 117.106 131.034C117.107 131.032 117.102 131.05 117.083 131.089C117.064 131.128 117.035 131.182 116.992 131.253L118.688 132.312L120.383 133.372C120.796 132.712 121.21 131.785 121.057 130.74C120.882 129.55 120.075 128.802 119.269 128.399L118.375 130.188ZM118.688 132.312L117.049 131.166C115.084 133.973 112.683 136.801 109.836 139.648L111.25 141.062L112.664 142.477C115.651 139.49 118.208 136.485 120.326 133.459L118.688 132.312ZM111.25 141.062L109.826 139.658C107.164 142.359 104.047 144.341 100.456 145.615L101.125 147.5L101.794 149.385C105.953 147.909 109.586 145.599 112.674 142.467L111.25 141.062ZM101.125 147.5L100.45 145.617C97.0073 146.852 93.0602 147.107 88.5468 146.283L88.1875 148.25L87.8282 150.217C92.8981 151.143 97.576 150.898 101.8 149.383L101.125 147.5ZM88.1875 148.25L88.5302 146.28C84.204 145.527 79.2229 143 73.5673 138.443L72.3125 140L71.0577 141.557C76.9854 146.334 82.5877 149.306 87.8448 150.22L88.1875 148.25ZM72.3125 140L73.5619 138.438C70.2992 135.828 67.0003 133.911 63.663 132.738L63 134.625L62.337 136.512C65.1664 137.506 68.0758 139.172 71.0631 141.562L72.3125 140ZM63 134.625L63.663 132.738C60.0708 131.476 56.3893 131.668 52.7207 133.221L53.5 135.062L54.2793 136.904C57.1107 135.707 59.7626 135.607 62.337 136.512L63 134.625ZM146.5 69.5625L146.892 71.5237L146.952 71.5117L147.011 71.4961L146.5 69.5625ZM162.562 70.625L163.429 68.8227L163.415 68.8158L163.401 68.8091L162.562 70.625ZM169 94.25L167.688 92.7408L167.679 92.7479L167.671 92.7552L169 94.25ZM160.938 101L159.581 99.5304L159.574 99.537L159.567 99.5436L160.938 101ZM160.438 106.375L159.113 107.874L159.12 107.88L159.128 107.886L160.438 106.375ZM170.125 118.688L168.185 119.173L168.188 119.184L168.191 119.195L170.125 118.688ZM168.375 127.5L169.93 128.758L169.934 128.753L168.375 127.5ZM159.312 137.5L160.717 138.924L160.717 138.923L159.312 137.5ZM149.875 147L151.27 148.433L151.289 148.415L151.308 148.395L149.875 147ZM147.062 146.75L149.024 146.358L149.017 146.324L149.009 146.29L147.062 146.75ZM139.688 140.75L138.939 142.604L138.949 142.609L138.96 142.613L139.688 140.75ZM125.938 135.75L125.226 137.619L125.27 137.636L125.315 137.651L125.938 135.75ZM125.75 133.875L124.31 132.487L124.254 132.545L124.202 132.609L125.75 133.875ZM132.875 126.938L134.238 128.401L134.24 128.4L132.875 126.938ZM134.75 122.312L132.909 123.094L132.923 123.128L132.939 123.161L134.75 122.312ZM131.438 117.688L132.887 116.309L132.88 116.302L131.438 117.688ZM125.5 105.75L123.502 105.66L123.502 105.671L123.501 105.683L125.5 105.75ZM129.562 95.9375L128.079 94.5957L128.074 94.602L129.562 95.9375ZM137.562 88.75L138.744 90.3635L138.748 90.3607L137.562 88.75ZM146.062 81.375L144.745 79.8698L144.69 79.9188L144.637 79.9718L146.062 81.375ZM147.375 81.6875L146.018 83.1571L146.033 83.1702L146.047 83.1829L147.375 81.6875ZM161.312 89.1875L161.29 91.1874L161.29 91.1874L161.312 89.1875ZM168.625 85.875L170.414 86.7694L170.417 86.7629L170.42 86.7563L168.625 85.875ZM168.312 78.75L166.548 79.6912L166.554 79.7035L168.312 78.75ZM161.812 72.5625L162.765 70.8039L162.733 70.7866L162.7 70.7704L161.812 72.5625ZM146.875 71.9375L146.234 70.0431L146.195 70.0562L146.157 70.0708L146.875 71.9375ZM136.5 125.688L135.071 124.288L134.9 124.463L134.776 124.673L136.5 125.688ZM136.875 127.312L135.894 129.056L135.962 129.094L136.032 129.126L136.875 127.312ZM154.688 135.25L155.493 133.419L155.475 133.411L155.457 133.404L154.688 135.25ZM160.938 131.688L162.627 132.757L162.633 132.749L160.938 131.688ZM150.688 115.438L151.848 113.809L151.784 113.763L151.716 113.723L150.688 115.438ZM145.312 116.688L144.059 115.129L143.967 115.203L143.883 115.288L145.312 116.688ZM145.125 112.688L143.858 114.235L143.891 114.262L143.925 114.287L145.125 112.688ZM146.5 112.625L145.101 111.195L145.093 111.203L145.086 111.211L146.5 112.625ZM158.125 101.25L159.524 102.68L159.569 102.635L159.612 102.588L158.125 101.25ZM158.438 100.125L156.54 100.757L156.585 100.892L156.649 101.019L158.438 100.125ZM157.5 99.5L157.291 101.489L157.312 101.491L157.334 101.493L157.5 99.5ZM149.625 96.75L148.638 98.4894L148.649 98.4957L148.66 98.5019L149.625 96.75ZM135.125 93.9375L133.605 92.6379L133.6 92.6439L135.125 93.9375ZM135.062 103.375L133.588 104.726L133.593 104.732L133.598 104.737L135.062 103.375ZM146.5 69.5625L147.011 71.4961C152.454 70.0577 157.324 70.41 161.724 72.4409L162.562 70.625L163.401 68.8091C158.051 66.34 152.213 65.984 145.989 67.6289L146.5 69.5625ZM162.562 70.625L161.696 72.4273C164.692 73.8685 166.963 75.8253 168.578 78.2854L170.25 77.1875L171.922 76.0896C169.871 72.9664 167.017 70.5482 163.429 68.8227L162.562 70.625ZM170.25 77.1875L168.578 78.2854C170.146 80.6721 170.776 83.3291 170.449 86.3469L172.438 86.5625L174.426 86.7781C174.849 82.8793 174.021 79.2863 171.922 76.0896L170.25 77.1875ZM172.438 86.5625L170.449 86.3469C170.108 89.4915 169.102 91.5105 167.688 92.7408L169 94.25L170.312 95.7592C172.731 93.6562 174.017 90.5501 174.426 86.7781L172.438 86.5625ZM169 94.25L167.671 92.7552C165.814 94.4065 164.315 95.6598 163.166 96.5316L164.375 98.125L165.584 99.7184C166.851 98.7569 168.436 97.4268 170.329 95.7448L169 94.25ZM164.375 98.125L163.166 96.5316C161.908 97.486 160.713 98.4856 159.581 99.5304L160.938 101L162.294 102.47C163.329 101.514 164.425 100.597 165.584 99.7184L164.375 98.125ZM160.938 101L159.567 99.5436C158.357 100.682 157.377 102.054 157.227 103.659C157.066 105.388 157.911 106.811 159.113 107.874L160.438 106.375L161.762 104.876C161.173 104.356 161.204 104.091 161.21 104.029C161.228 103.842 161.393 103.318 162.308 102.456L160.938 101ZM160.438 106.375L159.128 107.886C164.731 112.743 167.515 116.494 168.185 119.173L170.125 118.688L172.065 118.202C171.068 114.214 167.394 109.757 161.747 104.864L160.438 106.375ZM170.125 118.688L168.191 119.195C168.915 121.956 168.435 124.232 166.816 126.247L168.375 127.5L169.934 128.753C172.399 125.685 173.085 122.085 172.059 118.18L170.125 118.688ZM168.375 127.5L166.821 126.242C164.034 129.684 161.063 132.962 157.908 136.077L159.312 137.5L160.717 138.923C163.979 135.705 167.049 132.316 169.929 128.758L168.375 127.5ZM159.312 137.5L157.908 136.076C154.732 139.211 151.576 142.387 148.442 145.605L149.875 147L151.308 148.395C154.424 145.197 157.56 142.039 160.717 138.924L159.312 137.5ZM149.875 147L148.48 145.567C148.161 145.877 147.949 146.029 147.84 146.092C147.712 146.164 147.86 146.041 148.193 146.07C148.374 146.087 148.563 146.146 148.733 146.249C148.896 146.349 148.995 146.46 149.044 146.528C149.124 146.638 149.079 146.636 149.024 146.358L147.062 146.75L145.101 147.142C145.212 147.697 145.41 148.331 145.807 148.878C146.25 149.488 146.939 149.975 147.839 150.055C148.64 150.126 149.332 149.846 149.824 149.565C150.334 149.273 150.818 148.873 151.27 148.433L149.875 147ZM147.062 146.75L149.009 146.29C148.607 144.588 147.529 143.163 146.075 141.98C144.627 140.802 142.712 139.784 140.415 138.887L139.688 140.75L138.96 142.613C141.038 143.424 142.54 144.26 143.55 145.083C144.555 145.9 144.977 146.621 145.116 147.21L147.062 146.75ZM139.688 140.75L140.436 138.896C136.058 137.127 131.432 135.445 126.56 133.849L125.938 135.75L125.315 137.651C130.109 139.221 134.65 140.873 138.939 142.604L139.688 140.75ZM125.938 135.75L126.649 133.881C126.601 133.862 126.714 133.895 126.863 134.047C127.041 134.228 127.192 134.505 127.224 134.832C127.253 135.121 127.175 135.302 127.166 135.322C127.157 135.343 127.181 135.284 127.298 135.141L125.75 133.875L124.202 132.609C123.757 133.153 123.13 134.083 123.244 135.23C123.385 136.637 124.469 137.331 125.226 137.619L125.938 135.75ZM125.75 133.875L127.19 135.263C128.298 134.114 129.447 132.965 130.639 131.814L129.25 130.375L127.861 128.936C126.636 130.119 125.452 131.302 124.31 132.487L125.75 133.875ZM129.25 130.375L130.639 131.814C131.839 130.655 133.039 129.518 134.238 128.401L132.875 126.938L131.512 125.474C130.295 126.607 129.078 127.761 127.861 128.936L129.25 130.375ZM132.875 126.938L134.24 128.4C136.221 126.551 137.788 124.082 136.561 121.464L134.75 122.312L132.939 123.161C132.983 123.256 133.03 123.389 132.897 123.717C132.736 124.112 132.339 124.702 131.51 125.475L132.875 126.938ZM134.75 122.312L136.591 121.531C135.876 119.845 134.593 118.102 132.887 116.309L131.438 117.688L129.988 119.066C131.532 120.689 132.458 122.03 132.909 123.094L134.75 122.312ZM131.438 117.688L132.88 116.302C128.957 112.219 127.4 108.741 127.499 105.817L125.5 105.75L123.501 105.683C123.35 110.176 125.751 114.656 129.995 119.073L131.438 117.688ZM125.5 105.75L127.498 105.84C127.643 102.606 128.81 99.7719 131.051 97.273L129.562 95.9375L128.074 94.602C125.232 97.7698 123.69 101.478 123.502 105.66L125.5 105.75ZM129.562 95.9375L131.046 97.2793C133.326 94.7584 135.891 92.4529 138.744 90.3635L137.562 88.75L136.381 87.1365C133.317 89.3804 130.549 91.8666 128.079 94.5957L129.562 95.9375ZM137.562 88.75L138.748 90.3607C141.835 88.0884 144.748 85.5604 147.488 82.7782L146.062 81.375L144.637 79.9718C142.043 82.6063 139.29 84.995 136.377 87.1393L137.562 88.75ZM146.062 81.375L147.38 82.8802C147.249 82.994 147.056 83.1127 146.805 83.1738C146.555 83.2346 146.334 83.2173 146.177 83.18C145.913 83.1171 145.856 83.0073 146.018 83.1571L147.375 81.6875L148.732 80.2179C148.352 79.8677 147.805 79.4558 147.104 79.2888C146.267 79.0895 145.408 79.29 144.745 79.8698L146.062 81.375ZM147.375 81.6875L146.047 83.1829C151.681 88.1861 156.805 91.137 161.29 91.1874L161.312 89.1875L161.335 87.1876C158.404 87.1547 154.236 85.1056 148.703 80.1921L147.375 81.6875ZM161.312 89.1875L161.29 91.1874C165.383 91.2329 168.791 90.0147 170.414 86.7694L168.625 85.875L166.836 84.9806C166.209 86.2353 164.742 87.2255 161.335 87.1876L161.312 89.1875ZM168.625 85.875L170.42 86.7563C171.861 83.8212 171.678 80.7608 170.071 77.7965L168.312 78.75L166.554 79.7035C167.613 81.6558 167.639 83.3455 166.83 84.9937L168.625 85.875ZM168.312 78.75L170.077 77.8088C168.524 74.8973 166.039 72.5772 162.765 70.8039L161.812 72.5625L160.86 74.3211C163.586 75.7978 165.434 77.6027 166.548 79.6912L168.312 78.75ZM161.812 72.5625L162.7 70.7704C157.62 68.2536 152.083 68.0633 146.234 70.0431L146.875 71.9375L147.516 73.8319C152.5 72.145 156.922 72.3714 160.925 74.3546L161.812 72.5625ZM146.875 71.9375L146.157 70.0708C145.997 70.1322 145.927 70.1408 145.929 70.1406C145.934 70.14 146.059 70.1268 146.247 70.1933C146.454 70.2667 146.634 70.402 146.758 70.5614C146.867 70.7031 146.888 70.8057 146.883 70.7868L144.938 71.25L142.992 71.7132C143.198 72.5794 143.752 73.5523 144.909 73.963C145.903 74.3156 146.89 74.0746 147.593 73.8042L146.875 71.9375ZM144.938 71.25L146.883 70.7868C146.885 70.7959 146.91 70.906 146.872 71.0772C146.832 71.2618 146.741 71.4206 146.639 71.5307C146.549 71.6279 146.489 71.6467 146.533 71.6264C146.578 71.6059 146.688 71.5645 146.892 71.5237L146.5 69.5625L146.108 67.6013C145.318 67.7593 144.385 68.0781 143.704 68.8131C142.907 69.6745 142.764 70.7567 142.992 71.7132L144.938 71.25ZM136.5 125.688L134.776 124.673C134.431 125.261 134.11 126.111 134.332 127.075C134.564 128.076 135.262 128.7 135.894 129.056L136.875 127.312L137.856 125.569C137.821 125.55 138.124 125.716 138.23 126.175C138.327 126.597 138.153 126.823 138.224 126.702L136.5 125.688ZM136.875 127.312L136.032 129.126C138.997 130.504 141.963 131.862 144.928 133.198L145.75 131.375L146.572 129.552C143.621 128.222 140.669 126.871 137.718 125.499L136.875 127.312ZM145.75 131.375L144.928 133.198C147.904 134.54 150.901 135.839 153.918 137.096L154.688 135.25L155.457 133.404C152.474 132.161 149.513 130.877 146.572 129.552L145.75 131.375ZM154.688 135.25L153.882 137.081C155.539 137.81 157.246 137.672 158.803 136.784C160.253 135.958 161.508 134.526 162.627 132.757L160.938 131.688L159.248 130.618C158.284 132.141 157.455 132.949 156.822 133.309C156.296 133.609 155.92 133.607 155.493 133.419L154.688 135.25ZM160.938 131.688L162.633 132.749C164.465 129.823 163.969 126.58 162.004 123.464C160.087 120.425 156.625 117.212 151.848 113.809L150.688 115.438L149.527 117.066C154.166 120.371 157.122 123.221 158.621 125.598C160.073 127.9 159.993 129.427 159.242 130.626L160.938 131.688ZM150.688 115.438L151.716 113.723C149.146 112.181 146.387 113.258 144.059 115.129L145.312 116.688L146.566 118.246C148.488 116.701 149.312 116.944 149.659 117.152L150.688 115.438ZM145.312 116.688L143.883 115.288L135.071 124.288L136.5 125.688L137.929 127.087L146.742 118.087L145.312 116.688ZM145.125 112.688L143.925 114.287C144.412 114.653 145.098 114.989 145.935 114.951C146.791 114.912 147.457 114.497 147.914 114.039L146.5 112.625L145.086 111.211C145.127 111.17 145.354 110.973 145.753 110.955C146.131 110.938 146.338 111.097 146.325 111.088L145.125 112.688ZM146.5 112.625L147.899 114.055L159.524 102.68L158.125 101.25L156.726 99.8205L145.101 111.195L146.5 112.625ZM158.125 101.25L159.612 102.588C160.214 101.919 160.937 100.652 160.226 99.2306L158.438 100.125L156.649 101.019C156.583 100.889 156.535 100.732 156.519 100.559C156.504 100.386 156.525 100.237 156.557 100.121C156.616 99.9087 156.704 99.8395 156.638 99.9121L158.125 101.25ZM158.438 100.125L160.335 99.4925C160.14 98.9069 159.765 98.3878 159.219 98.0234C158.702 97.679 158.144 97.5468 157.666 97.5069L157.5 99.5L157.334 101.493C157.356 101.495 157.204 101.488 157 101.352C156.766 101.196 156.61 100.968 156.54 100.757L158.438 100.125ZM157.5 99.5L157.709 97.511C155.679 97.2972 153.313 96.4979 150.59 94.9981L149.625 96.75L148.66 98.5019C151.687 100.169 154.571 101.203 157.291 101.489L157.5 99.5ZM149.625 96.75L150.612 95.0106C145.977 92.3798 143.008 90.6378 141.649 89.7584L140.562 91.4375L139.476 93.1166C140.95 94.0705 144.023 95.8702 148.638 98.4894L149.625 96.75ZM140.562 91.4375L141.649 89.7584C140.254 88.8554 138.701 88.9159 137.305 89.5579C136.013 90.1521 134.783 91.2601 133.605 92.6379L135.125 93.9375L136.645 95.2371C137.676 94.0316 138.456 93.4312 138.976 93.1921C139.392 93.0007 139.455 93.1029 139.476 93.1166L140.562 91.4375ZM135.125 93.9375L133.6 92.6439C132.013 94.5149 131.03 96.5615 131.016 98.7524C131.001 100.965 131.975 102.967 133.588 104.726L135.062 103.375L136.537 102.024C135.4 100.783 135.009 99.7122 135.016 98.7789C135.022 97.8239 135.445 96.6517 136.65 95.2311L135.125 93.9375ZM135.062 103.375L133.598 104.737C136.464 107.817 139.887 110.982 143.858 114.235L145.125 112.688L146.392 111.14C142.53 107.976 139.245 104.933 136.527 102.013L135.062 103.375Z" fill="url(#paint2_linear_263_17)" mask="url(#path-28-outside-1_263_17)"/>
</g>
<defs>
<linearGradient id="paint0_linear_263_17" x1="112.84" y1="0" x2="112.84" y2="225.686" gradientUnits="userSpaceOnUse">
<stop stop-color="#5F92C1"/>
<stop offset="1" stop-color="#E6B0BE"/>
</linearGradient>
<linearGradient id="paint1_linear_263_17" x1="112.836" y1="108.816" x2="112.836" y2="116.879" gradientUnits="userSpaceOnUse">
<stop stop-color="#5F92C1"/>
<stop offset="1" stop-color="#E6B0BE"/>
</linearGradient>
<linearGradient id="paint2_linear_263_17" x1="112.5" y1="46" x2="112.5" y2="179" gradientUnits="userSpaceOnUse">
<stop stop-color="#5F92C1"/>
<stop offset="1" stop-color="#E6B0BE"/>
</linearGradient>
<clipPath id="clip0_263_17">
<rect width="225.68" height="225.687" fill="white"/>
</clipPath>
</defs>
</svg>
